<svg xmlns="http://www.w3.org/2000/svg" width="64" height="64" viewBox="0 0 64 64" role="img" aria-labelledby="title desc">
  <title id="title">Expense Manager favicon</title>
  <desc id="desc">Ícono minimalista con monograma EM y acento financiero azul.</desc>
  <defs>
    <linearGradient id="bg" x1="10" y1="6" x2="58" y2="60" gradientUnits="userSpaceOnUse">
      <stop offset="0" stop-color="#020617"/>
      <stop offset="0.52" stop-color="#0f172a"/>
      <stop offset="1" stop-color="#1d4ed8"/>
    </linearGradient>
    <linearGradient id="accent" x1="16" y1="12" x2="54" y2="52" gradientUnits="userSpaceOnUse">
      <stop offset="0" stop-color="#38bdf8"/>
      <stop offset="1" stop-color="#2563eb"/>
    </linearGradient>
    <filter id="shadow" x="-20%" y="-20%" width="140%" height="140%" color-interpolation-filters="sRGB">
      <feDropShadow dx="0" dy="6" stdDeviation="6" flood-color="#020617" flood-opacity="0.28"/>
    </filter>
  </defs>

  <rect width="64" height="64" rx="18" fill="url(#bg)"/>
  <path d="M50 8c4 8 5 18 2 28-3 11-10 17-18 20" fill="none" stroke="#38bdf8" stroke-opacity="0.18" stroke-width="2"/>
  <circle cx="50" cy="14" r="3" fill="#38bdf8" opacity="0.9"/>

  <g filter="url(#shadow)">
    <rect x="13" y="14" width="38" height="36" rx="12" fill="rgba(248,251,255,0.08)" stroke="rgba(148,163,184,0.2)"/>
    <path d="M22 41V23h13v4.2h-8.2v2.6h7.2v4h-7.2v3h8.4V41H22Z" fill="#F8FBFF"/>
    <path d="M38 41V23h4.1l3.2 5.8 3.1-5.8H52v18h-4.5v-9.2l-2.2 4h-.3l-2.3-4V41H38Z" fill="#38BDF8"/>
  </g>

  <path d="M16 48h32" stroke="url(#accent)" stroke-width="3" stroke-linecap="round" opacity="0.95"/>
</svg>
